<?xml version="1.0" encoding="UTF-8"?>
<!-- Created with Inkscape (http://www.inkscape.org/) -->
<svg width="74.499mm" height="74.499mm" version="1.1" viewBox="0 0 74.499 74.499" xmlns="http://www.w3.org/2000/svg" xmlns:cc="http://creativecommons.org/ns#" xmlns:dc="http://purl.org/dc/elements/1.1/" xmlns:rdf="http://www.w3.org/1999/02/22-rdf-syntax-ns#">
 <metadata>
  <rdf:RDF>
   <cc:Work rdf:about="">
    <dc:format>image/svg+xml</dc:format>
    <dc:type rdf:resource="http://purl.org/dc/dcmitype/StillImage"/>
    <dc:title/>
   </cc:Work>
  </rdf:RDF>
 </metadata>
 <g transform="translate(-21.923 -22.772)">
  <path d="m59.172 23.022a36.999 36.999 0 0 0-36.999 36.999 36.999 36.999 0 0 0 36.999 36.999 36.999 36.999 0 0 0 36.999-36.999 36.999 36.999 0 0 0-36.999-36.999zm0 9.6871a27.312 27.312 0 0 1 2.7268 0.13667 27.312 27.312 0 0 1 2.6994 0.40779 27.312 27.312 0 0 1 2.6449 0.67559 27.312 27.312 0 0 1 2.5646 0.93596 27.312 27.312 0 0 1 2.4582 1.1874 27.312 27.312 0 0 1 2.3275 1.4271 27.312 27.312 0 0 1 2.1734 1.6523 27.312 27.312 0 0 1 1.9975 1.8608 27.312 27.312 0 0 1 1.8019 2.0508 27.312 27.312 0 0 1 1.5878 2.2208 27.312 27.312 0 0 1 1.3586 2.3682 27.312 27.312 0 0 1 1.1152 2.4916 27.312 27.312 0 0 1 0.86078 2.5908 27.312 27.312 0 0 1 0.59779 2.6638 27.312 27.312 0 0 1 0.3289 2.7101 27.312 27.312 0 0 1 0.0686 1.9319 27.312 27.312 0 0 1-0.1363 2.7268 27.312 27.312 0 0 1-0.40816 2.6994 27.312 27.312 0 0 1-0.67559 2.6449 27.312 27.312 0 0 1-0.93596 2.5646 27.312 27.312 0 0 1-1.1875 2.4582 27.312 27.312 0 0 1-1.4271 2.3275 27.312 27.312 0 0 1-1.6519 2.1734 27.312 27.312 0 0 1-1.8612 1.9975 27.312 27.312 0 0 1-2.0508 1.8019 27.312 27.312 0 0 1-2.2208 1.5878 27.312 27.312 0 0 1-2.3679 1.3586 27.312 27.312 0 0 1-2.492 1.1152 27.312 27.312 0 0 1-2.5908 0.86078 27.312 27.312 0 0 1-2.6638 0.59779 27.312 27.312 0 0 1-2.7101 0.32891 27.312 27.312 0 0 1-1.9319 0.0686 27.312 27.312 0 0 1-2.7264-0.1363 27.312 27.312 0 0 1-2.6994-0.40817 27.312 27.312 0 0 1-2.6453-0.67522 27.312 27.312 0 0 1-2.5645-0.93633 27.312 27.312 0 0 1-2.4583-1.1875 27.312 27.312 0 0 1-2.3275-1.4271 27.312 27.312 0 0 1-2.1734-1.6519 27.312 27.312 0 0 1-1.9975-1.8612 27.312 27.312 0 0 1-1.8016-2.0508 27.312 27.312 0 0 1-1.5882-2.2208 27.312 27.312 0 0 1-1.3582-2.3679 27.312 27.312 0 0 1-1.1152-2.492 27.312 27.312 0 0 1-0.86078-2.5908 27.312 27.312 0 0 1-0.59817-2.6638 27.312 27.312 0 0 1-0.32891-2.7101 27.312 27.312 0 0 1-0.0686-1.9319 27.312 27.312 0 0 1 0.13668-2.7264 27.312 27.312 0 0 1 0.40778-2.6994 27.312 27.312 0 0 1 0.67559-2.6453 27.312 27.312 0 0 1 0.93597-2.5645 27.312 27.312 0 0 1 1.1874-2.4583 27.312 27.312 0 0 1 1.4271-2.3275 27.312 27.312 0 0 1 1.6523-2.1734 27.312 27.312 0 0 1 1.8608-1.9975 27.312 27.312 0 0 1 2.0508-1.8016 27.312 27.312 0 0 1 2.2208-1.5882 27.312 27.312 0 0 1 2.3682-1.3582 27.312 27.312 0 0 1 2.4916-1.1152 27.312 27.312 0 0 1 2.5909-0.86077 27.312 27.312 0 0 1 2.6638-0.59818 27.312 27.312 0 0 1 2.7101-0.32891 27.312 27.312 0 0 1 1.9319-0.0685z" image-rendering="auto" stroke-opacity="0"/>
 </g>
</svg>
